<svg width="48" height="48" viewBox="0 0 48 48" fill="none" xmlns="http://www.w3.org/2000/svg">
<path d="M24.23 47.46C11.4 47.46 1 37.06 1 24.23C1 11.4 11.4 1 24.23 1C37.06 1 47.46 11.4 47.46 24.23C47.46 37.06 37.06 47.46 24.23 47.46Z" fill="white" stroke="#111111" stroke-width="0.4321" stroke-miterlimit="10"/>
<path d="M32.6142 15.8457L32.6142 15.8456L32.6088 15.8403C32.1579 15.4007 31.7203 15.1028 31.1073 14.8707C30.6417 14.685 29.9763 14.4934 28.8187 14.4406C27.6139 14.3799 27.2504 14.3699 24.2299 14.3699C21.2098 14.3699 20.8359 14.3799 19.6411 14.4406C18.4719 14.4939 17.8104 14.6989 17.3593 14.8681L17.3581 14.8686C16.7476 15.0989 16.3054 15.386 15.8457 15.8457L15.8456 15.8456L15.8403 15.8511C15.4007 16.302 15.1028 16.7396 14.8707 17.3526C14.685 17.8181 14.4934 18.4836 14.4406 19.6412C14.3799 20.8459 14.3699 21.2094 14.3699 24.2299C14.3699 27.1418 14.3887 27.5861 14.4353 28.6935C14.437 28.7331 14.4387 28.7736 14.4405 28.8151L14.4406 28.8172C14.4938 29.9874 14.6989 30.6492 14.8681 31.1006L14.8686 31.1018C15.0989 31.7122 15.386 32.1545 15.8457 32.6142L15.8456 32.6142L15.8511 32.6195C16.302 33.0592 16.7396 33.3571 17.3525 33.5892C17.8181 33.7748 18.4835 33.9665 19.6409 34.0192C20.8459 34.08 21.2093 34.0899 24.2299 34.0899C27.1416 34.0899 27.586 34.0712 28.6933 34.0245C28.733 34.0229 28.7736 34.0212 28.8151 34.0194L28.8172 34.0193C29.9874 33.9661 30.6492 33.761 31.1006 33.5917L31.1018 33.5913C31.7122 33.3609 32.1545 33.0739 32.6142 32.6142L32.6142 32.6142L32.6195 32.6088C33.0592 32.1579 33.3571 31.7203 33.5892 31.1073C33.7748 30.6418 33.9665 29.9764 34.0192 28.8189C34.08 27.614 34.0899 27.2506 34.0899 24.2299C34.0899 21.3181 34.0712 20.8738 34.0245 19.7664C34.0229 19.7267 34.0212 19.6862 34.0194 19.6447L34.0193 19.6427C33.9661 18.4725 33.761 17.8106 33.5917 17.3593L33.5913 17.3581C33.3609 16.7476 33.0739 16.3054 32.6142 15.8457ZM19.5949 13.6094L19.5949 13.6094L19.5997 13.6092C20.7939 13.55 21.1614 13.5399 24.2299 13.5399C27.2984 13.5399 27.666 13.55 28.8602 13.6092L28.8602 13.6092L28.865 13.6094C30.0065 13.657 30.7604 13.8356 31.4118 14.0889C32.0831 14.3521 32.6406 14.6891 33.2057 15.2542C33.7708 15.8194 34.1079 16.3769 34.371 17.0482C34.6258 17.7035 34.8131 18.458 34.8605 19.5949L34.8604 19.5949L34.8607 19.5996C34.9199 20.7939 34.9299 21.1614 34.9299 24.2299C34.9299 27.2016 34.9112 27.65 34.8649 28.7592C34.8635 28.793 34.862 28.8274 34.8606 28.8625C34.8032 30.0056 34.6243 30.7603 34.371 31.4118C34.1078 32.0831 33.7708 32.6405 33.2057 33.2057C32.6406 33.7708 32.0831 34.1078 31.4118 34.371C30.7565 34.6258 30.0019 34.8131 28.865 34.8604L28.8602 34.8607C27.666 34.9199 27.2984 34.9299 24.2299 34.9299C21.2585 34.9299 20.8099 34.9112 19.7009 34.8649C19.667 34.8635 19.6326 34.862 19.5974 34.8606C18.4544 34.8032 17.6996 34.6243 17.0482 34.371C16.3769 34.1079 15.8194 33.7708 15.2542 33.2057C14.69 32.6415 14.3532 32.0849 14.0902 31.4151C13.8435 30.7561 13.6567 29.9996 13.6094 28.865L13.6092 28.8602C13.55 27.666 13.5399 27.2984 13.5399 24.2299C13.5399 21.1613 13.55 20.7839 13.6092 19.5999L13.6092 19.5999L13.6094 19.5949C13.657 18.4534 13.8356 17.6995 14.0889 17.0481C14.352 16.3768 14.6891 15.8194 15.2542 15.2542C15.8184 14.69 16.375 14.3531 17.0448 14.0902C17.7038 13.8435 18.4603 13.6567 19.5949 13.6094Z" stroke="#111111" stroke-width="1.2"/>
<path d="M19.0302 24.2299C19.0302 21.3613 21.3615 19.0299 24.2302 19.0299C27.0988 19.0299 29.4302 21.3613 29.4302 24.2299C29.4302 27.0986 27.0988 29.4299 24.2302 29.4299C21.3615 29.4299 19.0302 27.0986 19.0302 24.2299ZM19.8702 24.2399C19.8702 26.6403 21.8178 28.5999 24.2302 28.5999C26.6426 28.5999 28.5902 26.6403 28.5902 24.2399C28.5902 21.8396 26.6426 19.8799 24.2302 19.8799C21.8298 19.8799 19.8702 21.8275 19.8702 24.2399Z" stroke="#111111" stroke-width="1.2"/>
<path d="M31.1101 18.1998C31.1101 18.6737 30.724 19.0598 30.2501 19.0598C29.7763 19.0598 29.3901 18.6737 29.3901 18.1998C29.3901 17.7271 29.7745 17.3416 30.2469 17.3398C30.7379 17.348 31.1101 17.7306 31.1101 18.1998Z" stroke="#111111"/>
</svg>
