<svg width="48" height="48" viewBox="0 0 48 48" fill="none" xmlns="http://www.w3.org/2000/svg">
<path d="M24.23 47.46C11.4 47.46 1 37.06 1 24.23C1 11.4 11.4 1 24.23 1C37.06 1 47.46 11.4 47.46 24.23C47.46 37.06 37.06 47.46 24.23 47.46Z" fill="white" stroke="#111111" stroke-width="0.4321" stroke-miterlimit="10"/>
<path d="M24 12C17.3811 12 12 17.3811 12 24C12 30.6189 17.3811 36 24 36C30.6189 36 36 30.6189 36 24C36 17.3874 30.6189 12 24 12ZM34.3074 23.1726H29.7916C29.6779 19.4274 28.8063 16.2569 27.4737 14.2611C31.2253 15.6 33.9789 19.0484 34.3074 23.1726ZM24 34.3453C22.1242 34.3453 20.0526 30.48 19.8632 24.8274H28.1368C27.9474 30.48 25.8758 34.3453 24 34.3453ZM19.8632 23.1726C20.0526 17.5263 22.1242 13.6547 24 13.6547C25.8758 13.6547 27.9474 17.52 28.1368 23.1726H19.8632ZM20.5263 14.2611C19.1937 16.2569 18.3221 19.4337 18.2084 23.1726H13.6926C14.0211 19.0484 16.7747 15.6 20.5263 14.2611ZM13.6926 24.8274H18.2084C18.3221 28.5726 19.1937 31.7432 20.5263 33.739C16.7747 32.4 14.0211 28.9516 13.6926 24.8274ZM27.48 33.7453C28.8126 31.7495 29.6842 28.5726 29.7979 24.8337H34.3137C33.9789 28.9516 31.2253 32.4 27.48 33.7453Z" fill="#111111"/>
</svg>
