<svg width="16" height="81" viewBox="0 0 16 81" fill="none" xmlns="http://www.w3.org/2000/svg">
<path d="M7.29289 80.7071C7.68341 81.0976 8.31658 81.0976 8.7071 80.7071L15.0711 74.3431C15.4616 73.9526 15.4616 73.3195 15.0711 72.9289C14.6805 72.5384 14.0474 72.5384 13.6569 72.9289L8 78.5858L2.34314 72.9289C1.95262 72.5384 1.31945 72.5384 0.928929 72.9289C0.538405 73.3195 0.538405 73.9526 0.928929 74.3431L7.29289 80.7071ZM7 -4.37114e-08L7 1L9 1L9 4.37114e-08L7 -4.37114e-08ZM7 3L7 5L9 5L9 3L7 3ZM7 7L7 9L9 9L9 7L7 7ZM7 11L7 13L9 13L9 11L7 11ZM7 15L7 17L9 17L9 15L7 15ZM7 19L7 21L9 21L9 19L7 19ZM7 23L7 25L9 25L9 23L7 23ZM7 27L7 29L9 29L9 27L7 27ZM7 31L7 33L9 33L9 31L7 31ZM7 35L7 37L9 37L9 35L7 35ZM7 39L7 41L9 41L9 39L7 39ZM7 43L7 45L9 45L9 43L7 43ZM7 47L7 49L9 49L9 47L7 47ZM7 51L7 53L9 53L9 51L7 51ZM7 55L7 57L9 57L9 55L7 55ZM7 59L7 61L9 61L9 59L7 59ZM7 63L7 65L9 65L9 63L7 63ZM7 67L7 69L9 69L9 67L7 67ZM7 71L7 73L9 73L9 71L7 71ZM7 75L7 77L9 77L9 75L7 75ZM7 79L7 80L9 80L9 79L7 79ZM7.29289 80.7071C7.68341 81.0976 8.31658 81.0976 8.7071 80.7071L15.0711 74.3431C15.4616 73.9526 15.4616 73.3195 15.0711 72.9289C14.6805 72.5384 14.0474 72.5384 13.6569 72.9289L8 78.5858L2.34314 72.9289C1.95262 72.5384 1.31945 72.5384 0.928929 72.9289C0.538405 73.3195 0.538405 73.9526 0.928929 74.3431L7.29289 80.7071ZM7 -4.37114e-08L7 1L9 1L9 4.37114e-08L7 -4.37114e-08ZM7 3L7 5L9 5L9 3L7 3ZM7 7L7 9L9 9L9 7L7 7ZM7 11L7 13L9 13L9 11L7 11ZM7 15L7 17L9 17L9 15L7 15ZM7 19L7 21L9 21L9 19L7 19ZM7 23L7 25L9 25L9 23L7 23ZM7 27L7 29L9 29L9 27L7 27ZM7 31L7 33L9 33L9 31L7 31ZM7 35L7 37L9 37L9 35L7 35ZM7 39L7 41L9 41L9 39L7 39ZM7 43L7 45L9 45L9 43L7 43ZM7 47L7 49L9 49L9 47L7 47ZM7 51L7 53L9 53L9 51L7 51ZM7 55L7 57L9 57L9 55L7 55ZM7 59L7 61L9 61L9 59L7 59ZM7 63L7 65L9 65L9 63L7 63ZM7 67L7 69L9 69L9 67L7 67ZM7 71L7 73L9 73L9 71L7 71ZM7 75L7 77L9 77L9 75L7 75ZM7 79L7 80L9 80L9 79L7 79Z" fill="white"/>
</svg>
