<svg width="40" height="40" viewBox="0 0 40 40" fill="none" xmlns="http://www.w3.org/2000/svg">
<path d="M20.03 39.06C9.52 39.06 1 30.54 1 20.03C1 9.52 9.52 1 20.03 1C30.54 1 39.06 9.52 39.06 20.03C39.06 30.54 30.54 39.06 20.03 39.06Z" fill="#181818"/>
<path d="M20.03 39.06C9.52 39.06 1 30.54 1 20.03C1 9.52 9.52 1 20.03 1C30.54 1 39.06 9.52 39.06 20.03C39.06 30.54 30.54 39.06 20.03 39.06Z" stroke="white" stroke-miterlimit="10"/>
<path d="M17.1901 26.34C17.7701 26.22 18.27 26 18.7 25.67C19.08 25.39 19.39 25.04 19.64 24.62C20.04 23.99 20.23 23.28 20.23 22.49C20.23 21.73 20.0601 21.07 19.7101 20.54C19.3601 20 18.85 19.61 18.17 19.36C18.62 19.13 18.9601 18.88 19.1901 18.6C19.6001 18.11 19.8101 17.45 19.8101 16.64C19.8101 15.85 19.61 15.17 19.2 14.61C18.52 13.69 17.3701 13.22 15.7501 13.19H9.31006V26.52H15.3101C15.9801 26.52 16.6101 26.46 17.1901 26.34ZM11.9601 15.51H14.86C15.5 15.51 16.0201 15.58 16.4301 15.72C16.9101 15.92 17.1501 16.33 17.1501 16.95C17.1501 17.51 16.97 17.9 16.61 18.12C16.25 18.34 15.78 18.45 15.2 18.45H11.9601V15.51ZM11.9601 24.21V20.66H15.2401C15.8101 20.67 16.26 20.74 16.57 20.89C17.14 21.15 17.42 21.62 17.42 22.32C17.42 23.14 17.13 23.69 16.54 23.98C16.22 24.14 15.7701 24.21 15.1901 24.21H11.9601Z" fill="white"/>
<path d="M22.4901 25.64C23.4901 26.45 24.6501 26.85 25.9601 26.85C27.5501 26.85 28.7901 26.37 29.6701 25.41C30.2401 24.81 30.5601 24.21 30.6301 23.63H28.0001C27.8501 23.92 27.6701 24.14 27.4701 24.31C27.1001 24.61 26.6301 24.76 26.0401 24.76C25.4901 24.76 25.0101 24.64 24.6201 24.39C23.9701 23.99 23.6301 23.3 23.5901 22.31H30.7701C30.7801 21.46 30.7501 20.81 30.6901 20.35C30.5701 19.58 30.3101 18.9 29.9001 18.31C29.4501 17.65 28.8801 17.16 28.2001 16.85C27.5101 16.54 26.7401 16.39 25.8801 16.39C24.4401 16.39 23.2601 16.85 22.3601 17.76C21.4601 18.67 21.0001 19.98 21.0001 21.69C20.9801 23.52 21.4801 24.83 22.4901 25.64ZM24.3301 19.09C24.6901 18.72 25.2101 18.53 25.8701 18.53C26.4801 18.53 26.9901 18.71 27.4001 19.06C27.8101 19.41 28.0401 19.93 28.0901 20.62H23.6501C23.7301 19.98 23.9601 19.47 24.3301 19.09Z" fill="white"/>
<path d="M28.5903 13.96H22.8003V15.3H28.5903V13.96Z" fill="white"/>
</svg>
