<svg width="39" height="39" viewBox="0 0 39 39" fill="none" xmlns="http://www.w3.org/2000/svg">
<path d="M19.03 38.06C8.52 38.06 0 29.54 0 19.03C0 8.52 8.52 0 19.03 0C29.54 0 38.06 8.52 38.06 19.03C38.07 29.54 29.55 38.06 19.03 38.06Z" fill="#181818"/>
<path d="M16.1402 30.53H20.7702V18.93H24.0002L24.3402 15.05H20.7602C20.7602 15.05 20.7602 13.6 20.7602 12.84C20.7602 11.92 20.9402 11.56 21.8302 11.56C22.5402 11.56 24.3402 11.56 24.3402 11.56V7.53C24.3402 7.53 21.7002 7.53 21.1302 7.53C17.6802 7.53 16.1302 9.05 16.1302 11.95C16.1302 14.48 16.1302 15.05 16.1302 15.05H13.7202V18.98H16.1302V30.53H16.1402Z" fill="white"/>
</svg>
