<svg width="39" height="39" viewBox="0 0 39 39" fill="none" xmlns="http://www.w3.org/2000/svg">
<path d="M19.03 38.06C8.52 38.06 0 29.54 0 19.03C0 8.52 8.52 0 19.03 0C29.54 0 38.06 8.52 38.06 19.03C38.06 29.54 29.54 38.06 19.03 38.06Z" fill="#181818"/>
<path d="M14.3399 14.78H10.3999V27.5H14.3399V14.78Z" fill="white"/>
<path d="M12.35 13.12C13.64 13.12 14.68 12.07 14.68 10.77C14.68 9.46998 13.64 8.41998 12.35 8.41998C11.06 8.41998 10.02 9.46998 10.02 10.77C10.02 12.07 11.06 13.12 12.35 13.12Z" fill="white"/>
<path d="M20.6399 20.83C20.6399 19.04 21.4599 17.98 23.0399 17.98C24.4899 17.98 25.1799 19 25.1799 20.83C25.1799 22.66 25.1799 27.51 25.1799 27.51H29.0999C29.0999 27.51 29.0999 22.86 29.0999 19.45C29.0999 16.04 27.1699 14.39 24.4699 14.39C21.7699 14.39 20.6399 16.49 20.6399 16.49V14.78H16.8599V27.5H20.6399C20.6399 27.51 20.6399 22.79 20.6399 20.83Z" fill="white"/>
</svg>
