<svg width="40" height="40" viewBox="0 0 40 40" fill="none" xmlns="http://www.w3.org/2000/svg">
<path d="M20.03 39.06C9.52 39.06 1 30.54 1 20.03C1 9.52 9.52 1 20.03 1C30.54 1 39.06 9.52 39.06 20.03C39.07 30.54 30.54 39.06 20.03 39.06Z" fill="#181818"/>
<path d="M20.03 39.06C9.52 39.06 1 30.54 1 20.03C1 9.52 9.52 1 20.03 1C30.54 1 39.06 9.52 39.06 20.03C39.07 30.54 30.54 39.06 20.03 39.06Z" stroke="white" stroke-miterlimit="10"/>
<path d="M15.3497 15.78H11.4097V28.5H15.3497V15.78Z" fill="white"/>
<path d="M13.3598 14.12C14.6498 14.12 15.6898 13.07 15.6898 11.77C15.6898 10.47 14.6498 9.41998 13.3598 9.41998C12.0698 9.41998 11.0298 10.47 11.0298 11.77C11.0298 13.07 12.0698 14.12 13.3598 14.12Z" fill="white"/>
<path d="M21.6399 21.83C21.6399 20.04 22.4599 18.98 24.0399 18.98C25.4899 18.98 26.1798 20 26.1798 21.83C26.1798 23.66 26.1798 28.51 26.1798 28.51H30.0999C30.0999 28.51 30.0999 23.86 30.0999 20.45C30.0999 17.04 28.1698 15.39 25.4698 15.39C22.7698 15.39 21.6399 17.49 21.6399 17.49V15.78H17.8599V28.5H21.6399C21.6399 28.51 21.6399 23.79 21.6399 21.83Z" fill="white"/>
</svg>
