<svg width="243" height="94" viewBox="0 0 243 94" fill="none" xmlns="http://www.w3.org/2000/svg">
<path d="M26.744 69C25.512 69 24.3733 68.7013 23.328 68.104C22.32 67.5067 21.5173 66.704 20.92 65.696C20.3227 64.6507 20.024 63.512 20.024 62.28V28.68H24.56V62.28C24.56 62.8773 24.7653 63.4 25.176 63.848C25.624 64.2587 26.1467 64.464 26.744 64.464H53.624C54.2213 64.464 54.7253 64.2587 55.136 63.848C55.584 63.4 55.808 62.8773 55.808 62.28V28.68H60.344V62.28C60.344 63.512 60.0453 64.6507 59.448 65.696C58.8507 66.704 58.0293 67.5067 56.984 68.104C55.976 68.7013 54.856 69 53.624 69H26.744ZM67.071 69V28.68H71.663V69H67.071Z" fill="#7291FC"/>
<path d="M120.12 69C118.851 69 117.693 68.7013 116.648 68.104C115.64 67.4693 114.819 66.648 114.184 65.64C113.587 64.5947 113.288 63.456 113.288 62.224V43.296C113.288 42.064 113.587 40.944 114.184 39.936C114.819 38.8907 115.64 38.0693 116.648 37.472C117.693 36.8373 118.851 36.52 120.12 36.52H141.792V25.88H146.384V69H120.12ZM120.12 64.408H139.608C140.205 64.408 140.709 64.2027 141.12 63.792C141.568 63.344 141.792 62.8213 141.792 62.224V43.296C141.792 42.6987 141.568 42.1947 141.12 41.784C140.709 41.336 140.205 41.112 139.608 41.112H120.12C119.523 41.112 119 41.336 118.552 41.784C118.141 42.1947 117.936 42.6987 117.936 43.296V62.224C117.936 62.8213 118.141 63.344 118.552 63.792C119 64.2027 119.523 64.408 120.12 64.408ZM157.89 69C156.658 69 155.519 68.7013 154.474 68.104C153.466 67.4693 152.644 66.648 152.01 65.64C151.412 64.5947 151.114 63.456 151.114 62.224V43.296C151.114 42.064 151.412 40.944 152.01 39.936C152.644 38.8907 153.466 38.0693 154.474 37.472C155.519 36.8373 156.658 36.52 157.89 36.52H177.378C178.647 36.52 179.786 36.8373 180.794 37.472C181.839 38.0693 182.66 38.8907 183.258 39.936C183.892 40.944 184.21 42.064 184.21 43.296V55.056H155.706V62.224C155.706 62.8213 155.911 63.344 156.322 63.792C156.77 64.2027 157.292 64.408 157.89 64.408H184.21V69H157.89ZM155.706 50.464H179.562V43.296C179.562 42.6987 179.338 42.1947 178.89 41.784C178.479 41.336 177.975 41.112 177.378 41.112H157.89C157.292 41.112 156.77 41.336 156.322 41.784C155.911 42.1947 155.706 42.6987 155.706 43.296V50.464ZM196.719 69C195.487 69 194.349 68.7013 193.303 68.104C192.295 67.4693 191.474 66.648 190.839 65.64C190.242 64.5947 189.943 63.456 189.943 62.224V50.464H218.391V43.296C218.391 42.6987 218.167 42.1947 217.719 41.784C217.309 41.336 216.805 41.112 216.207 41.112H189.943V36.52H216.207C217.477 36.52 218.615 36.8373 219.623 37.472C220.669 38.0693 221.49 38.8907 222.087 39.936C222.722 40.944 223.039 42.064 223.039 43.296V69H196.719ZM196.719 64.408H218.391V55.056H194.535V62.224C194.535 62.8213 194.741 63.344 195.151 63.792C195.599 64.2027 196.122 64.408 196.719 64.408ZM235.055 69C233.823 69 232.685 68.7013 231.639 68.104C230.631 67.4693 229.81 66.648 229.175 65.64C228.578 64.5947 228.279 63.456 228.279 62.224V25.88H232.871V62.224C232.871 62.8213 233.077 63.344 233.487 63.792C233.935 64.2027 234.458 64.408 235.055 64.408H240.543V69H235.055Z" fill="white"/>
<rect x="1" y="1" width="92" height="92" rx="7" stroke="white" stroke-width="2"/>
</svg>
