<svg width="94" height="94" viewBox="0 0 94 94" fill="none" xmlns="http://www.w3.org/2000/svg">
<rect x="1" y="1" width="92" height="92" rx="7" stroke="white" stroke-width="2"/>
<mask id="path-2-outside-1_275_12" maskUnits="userSpaceOnUse" x="19" y="27" width="54" height="43" fill="black">
<rect fill="white" x="19" y="27" width="54" height="43"/>
<path d="M26.744 69C25.512 69 24.3733 68.7013 23.328 68.104C22.32 67.5067 21.5173 66.704 20.92 65.696C20.3227 64.6507 20.024 63.512 20.024 62.28V28.68H24.56V62.28C24.56 62.8773 24.7653 63.4 25.176 63.848C25.624 64.2587 26.1467 64.464 26.744 64.464H53.624C54.2213 64.464 54.7253 64.2587 55.136 63.848C55.584 63.4 55.808 62.8773 55.808 62.28V28.68H60.344V62.28C60.344 63.512 60.0453 64.6507 59.448 65.696C58.8507 66.704 58.0293 67.5067 56.984 68.104C55.976 68.7013 54.856 69 53.624 69H26.744ZM67.071 69V28.68H71.663V69H67.071Z"/>
</mask>
<path d="M26.744 69C25.512 69 24.3733 68.7013 23.328 68.104C22.32 67.5067 21.5173 66.704 20.92 65.696C20.3227 64.6507 20.024 63.512 20.024 62.28V28.68H24.56V62.28C24.56 62.8773 24.7653 63.4 25.176 63.848C25.624 64.2587 26.1467 64.464 26.744 64.464H53.624C54.2213 64.464 54.7253 64.2587 55.136 63.848C55.584 63.4 55.808 62.8773 55.808 62.28V28.68H60.344V62.28C60.344 63.512 60.0453 64.6507 59.448 65.696C58.8507 66.704 58.0293 67.5067 56.984 68.104C55.976 68.7013 54.856 69 53.624 69H26.744ZM67.071 69V28.68H71.663V69H67.071Z" fill="#7291FC"/>
<path d="M23.328 68.104L22.8182 68.9643L22.825 68.9683L22.8319 68.9722L23.328 68.104ZM20.92 65.696L20.0518 66.1921L20.0557 66.199L20.0597 66.2058L20.92 65.696ZM20.024 28.68V27.68H19.024V28.68H20.024ZM24.56 28.68H25.56V27.68H24.56V28.68ZM25.176 63.848L24.4388 64.5237L24.4682 64.5558L24.5003 64.5852L25.176 63.848ZM55.136 63.848L55.8431 64.5551L55.8431 64.5551L55.136 63.848ZM55.808 28.68V27.68H54.808V28.68H55.808ZM60.344 28.68H61.344V27.68H60.344V28.68ZM59.448 65.696L60.3083 66.2058L60.3123 66.199L60.3162 66.1921L59.448 65.696ZM56.984 68.104L56.4879 67.2358L56.481 67.2397L56.4742 67.2437L56.984 68.104ZM26.744 68C25.6818 68 24.7147 67.7447 23.8241 67.2358L22.8319 68.9722C24.0319 69.658 25.3422 70 26.744 70V68ZM23.8378 67.2437C22.9742 66.7319 22.2921 66.0498 21.7803 65.1862L20.0597 66.2058C20.7426 67.3582 21.6658 68.2814 22.8182 68.9643L23.8378 67.2437ZM21.7882 65.1999C21.2793 64.3093 21.024 63.3422 21.024 62.28H19.024C19.024 63.6818 19.366 64.9921 20.0518 66.1921L21.7882 65.1999ZM21.024 62.28V28.68H19.024V62.28H21.024ZM20.024 29.68H24.56V27.68H20.024V29.68ZM23.56 28.68V62.28H25.56V28.68H23.56ZM23.56 62.28C23.56 63.1323 23.8624 63.8949 24.4388 64.5237L25.9132 63.1723C25.6683 62.9051 25.56 62.6224 25.56 62.28H23.56ZM24.5003 64.5852C25.1291 65.1616 25.8917 65.464 26.744 65.464V63.464C26.4016 63.464 26.1189 63.3557 25.8517 63.1108L24.5003 64.5852ZM26.744 65.464H53.624V63.464H26.744V65.464ZM53.624 65.464C54.4781 65.464 55.239 65.1592 55.8431 64.5551L54.4289 63.1409C54.2117 63.3581 53.9646 63.464 53.624 63.464V65.464ZM55.8431 64.5551C56.466 63.9322 56.808 63.1599 56.808 62.28H54.808C54.808 62.5948 54.702 62.8678 54.4289 63.1409L55.8431 64.5551ZM56.808 62.28V28.68H54.808V62.28H56.808ZM55.808 29.68H60.344V27.68H55.808V29.68ZM59.344 28.68V62.28H61.344V28.68H59.344ZM59.344 62.28C59.344 63.3422 59.0887 64.3093 58.5798 65.1999L60.3162 66.1921C61.002 64.9921 61.344 63.6818 61.344 62.28H59.344ZM58.5877 65.1862C58.0812 66.041 57.3871 66.7219 56.4879 67.2358L57.4801 68.9722C58.6715 68.2915 59.6202 67.367 60.3083 66.2058L58.5877 65.1862ZM56.4742 67.2437C55.6286 67.7448 54.6862 68 53.624 68V70C55.0258 70 56.3234 69.6579 57.4938 68.9643L56.4742 67.2437ZM53.624 68H26.744V70H53.624V68ZM67.071 69H66.071V70H67.071V69ZM67.071 28.68V27.68H66.071V28.68H67.071ZM71.663 28.68H72.663V27.68H71.663V28.68ZM71.663 69V70H72.663V69H71.663ZM68.071 69V28.68H66.071V69H68.071ZM67.071 29.68H71.663V27.68H67.071V29.68ZM70.663 28.68V69H72.663V28.68H70.663ZM71.663 68H67.071V70H71.663V68Z" fill="black" mask="url(#path-2-outside-1_275_12)"/>
</svg>
